<?xml version="1.0" encoding="utf-8"?>
<!-- Svg Vector Icons : http://www.onlinewebfonts.com/icon -->
<!DOCTYPE svg PUBLIC "-//W3C//DTD SVG 1.1//EN" "http://www.w3.org/Graphics/SVG/1.1/DTD/svg11.dtd">
<svg version="1.1" xmlns="http://www.w3.org/2000/svg" xmlns:xlink="http://www.w3.org/1999/xlink" x="0px" y="0px" viewBox="0 0 1000 1000" enable-background="new 0 0 1000 1000" xml:space="preserve">
<metadata> Svg Vector Icons : http://www.onlinewebfonts.com/icon </metadata>
<g><g transform="translate(0.000000,511.000000) scale(0.100000,-0.100000)"><path d="M4507.8,4979.3c-142.2-63.4-166.3-115.9-295.3-630c-76.6-299.7-135.6-490-155.3-500.9c-17.5-8.8-133.4-48.1-260.3-87.5c-126.9-39.4-354.4-133.4-507.5-210c-150.9-76.6-284.4-137.8-293.1-137.8c-8.7,0-203.4,113.8-435.3,251.6c-376.3,225.3-430.9,251.6-522.8,251.6c-56.9,0-129.1-13.1-161.9-30.6c-98.4-52.5-656.3-630-671.6-697.8c-37.2-142.2-2.2-236.3,238.4-636.6c129.1-214.4,240.6-402.5,247.2-417.8c4.4-17.5-52.5-155.3-129.1-310.6c-78.7-153.1-172.8-382.8-212.2-509.7c-39.4-126.9-78.8-242.8-87.5-260.3c-10.9-19.7-201.3-78.8-500.9-155.3C84.7,726.9,100,746.6,100,110c0-636.6-15.3-616.9,660.6-787.5c299.7-76.6,490-135.6,500.9-155.3c8.7-17.5,48.1-133.4,87.5-258.1c37.2-124.7,133.4-352.2,207.8-507.5c76.6-153.1,140-286.5,140-293.1c0-8.8-113.8-203.4-251.6-435.3c-227.5-378.4-251.6-428.7-251.6-522.8c0-56.9,13.1-131.2,30.6-164.1c52.5-98.4,630-656.2,697.8-671.6c140-37.2,236.3,0,616.9,229.7c205.6,122.5,391.6,234.1,417.8,245c37.2,17.5,100.6-6.6,330.3-120.3c157.5-76.6,387.2-172.8,511.9-210c124.7-39.4,240.6-78.8,258.1-87.5c19.7-10.9,78.8-201.2,155.3-500.9c170.6-676,150.9-660.6,787.5-660.6c636.6,0,616.9-15.3,787.5,660.6c76.6,297.5,135.6,492.2,155.3,500.9c17.5,8.8,131.3,48.1,255.9,87.5c124.7,37.2,354.4,131.3,511.9,210c155.3,76.6,297.5,135.6,310.6,131.3c15.3-6.6,203.4-118.1,420-247.2c330.3-199.1,409.1-236.3,503.1-245c74.4-6.6,131.3,2.2,175,24c100.6,52.5,658.5,630,676,700c37.2,142.2,2.2,236.3-229.7,616.9c-122.5,205.6-234.1,391.5-245,417.8c-17.5,37.2,6.6,100.6,120.3,332.5c76.6,157.5,172.8,387.2,210,511.9c39.4,124.7,78.8,238.4,87.5,255.9c8.7,19.7,203.4,78.8,500.9,155.3C9915.3-506.9,9900-526.6,9900,110c0,636.6,15.3,616.9-660.6,787.5c-299.7,76.6-490,135.6-500.9,155.3c-8.8,17.5-48.1,133.4-87.5,258.1c-37.2,124.7-133.5,354.4-210,511.9c-113.8,229.7-137.8,293.1-120.3,330.3c10.9,26.3,122.5,214.4,245,417.8c229.7,380.6,266.9,476.9,229.7,616.9c-15.3,67.8-573.1,645.3-671.6,697.8c-32.8,17.5-107.2,30.6-164.1,30.6c-94.1,0-144.4-24.1-522.8-251.6c-231.9-137.8-426.5-251.6-435.3-251.6c-6.6,0-140,63.4-293.1,140c-155.3,74.4-382.8,170.6-507.5,207.8c-124.7,39.4-240.6,78.8-258.1,87.5c-19.7,10.9-78.8,201.3-155.3,500.9c-170.6,675.9-150.9,660.6-791.9,660.6C4693.8,5007.8,4556,4999,4507.8,4979.3z M5365.3,4600.9c6.6-35,70-282.2,137.8-551.2l122.5-490l236.3-63.4c317.2-80.9,632.2-210,903.4-367.5c122.5-72.2,229.7-131.3,234.1-131.3c6.5,0,223.1,129.1,483.4,284.4c260.3,157.5,479.1,284.4,487.8,284.4c19.7,0,485.6-465.9,485.6-485.6c0-8.7-129.1-229.7-286.6-492.2l-288.8-476.9l43.8-76.6c24.1-41.6,87.5-155.3,142.2-251.6c129-227.5,242.8-518.4,321.6-811.6l61.3-236.2l490-122.5c269.1-67.8,516.3-131.3,551.3-137.8L9550,460V110v-350l-59.1-15.3c-35-6.6-282.2-70-551.3-137.8l-492.2-122.5L8430-590c-105-430.9-238.4-772.2-424.4-1085c-65.6-109.4-118.1-203.4-118.1-212.2c0-6.6,129.1-225.3,284.4-485.6c157.5-260.3,284.4-479.1,284.4-487.8c0-19.7-465.9-485.6-485.6-485.6c-8.8,0-227.5,129.1-487.8,284.4c-260.3,157.5-479.1,284.4-485.6,284.4c-8.7,0-102.8-52.5-212.2-118.1c-312.8-185.9-654-319.4-1085-424.4l-74.4-17.5l-122.5-492.2c-67.8-269.1-131.3-516.3-137.8-551.3L5350-4440h-350h-350l-15.3,61.2c-6.6,32.8-70,280-137.8,549.1l-122.5,490l-236.2,63.5c-317.2,80.9-632.2,210-903.4,367.5c-122.5,72.2-229.7,131.3-234.1,131.3c-6.6,0-223.1-126.9-483.4-284.4c-260.3-155.3-479.1-284.4-487.8-284.4c-19.7,0-485.6,465.9-485.6,485.6c0,8.8,129.1,227.5,284.4,487.8c157.5,260.3,284.4,476.9,284.4,483.4c0,4.4-59.1,111.6-131.3,234.1c-157.5,271.3-286.6,586.2-367.5,903.4l-63.4,236.3l-490,122.5c-269.1,67.8-516.2,131.3-549.1,137.8L450-240v350v350l59.1,15.3c35,6.6,282.2,70,551.2,137.8l490,122.5l63.4,236.2c80.9,317.2,210,632.2,367.5,903.4c72.2,122.5,131.3,229.7,131.3,234.1c0,6.6-129.1,223.1-284.4,483.4c-157.5,260.3-284.4,479.1-284.4,487.8c0,19.7,465.9,485.6,485.6,485.6c8.7,0,227.5-126.9,487.8-284.4c260.3-155.3,476.9-284.4,483.4-284.4c4.4,0,111.6,59.1,234.1,131.3c271.3,157.5,586.3,286.6,903.4,367.5l236.2,63.4l122.5,490c67.8,269.1,131.3,516.3,137.8,551.2l15.3,59.1h350h350L5365.3,4600.9z"/><path d="M4595.3,2525c-1032.5-172.8-1844-993.1-2012.5-2032.2c-96.2-595,52.5-1266.6,389.4-1758.7c380.6-553.4,995.3-942.8,1655.9-1041.2c1336.6-203.4,2587.8,713.1,2789,2045.3C7559.4,670,7154.7,1604,6375.9,2137.8C5883.7,2476.9,5192.5,2627.8,4595.3,2525z M5505.3,2146.5c391.5-100.6,697.8-277.8,982.2-568.8c282.2-284.4,463.8-608.1,562.2-999.7c52.5-207.8,52.5-728.4,0-936.2c-98.4-389.4-273.4-704.4-551.3-986.5c-218.8-223.1-315-295.3-570.9-422.2c-332.5-168.4-673.8-238.4-1045.6-216.6c-533.7,30.6-988.8,238.4-1369.4,625.6c-282.2,284.4-463.8,608.1-562.2,999.7c-52.5,207.8-52.5,728.4,0,936.2c98.4,391.6,280,715.3,562.2,999.7c321.6,328.1,675.9,516.3,1122.2,601.6C4853.4,2220.9,5288.7,2205.6,5505.3,2146.5z"/></g></g>
</svg>